<svg width="35" height="56" xmlns="http://www.w3.org/2000/svg"><g stroke="#333" fill="none" fill-rule="evenodd"><path d="M2 1a1 1 0 00-1 1v52a1 1 0 001 1h31a1 1 0 001-1V2a1 1 0 00-1-1H2z" stroke-width="2" fill="#FFF"/><circle fill="#FFF" cx="17.5" cy="6.5" r="2"/><rect stroke-width="1.98" fill="#34D056" x="6.99" y="12.39" width="7.62" height="7.26" rx="1.32"/><rect stroke-width="1.98" fill="#34D056" x="6.99" y="24.39" width="7.62" height="7.26" rx="1.32"/><rect stroke-width="1.98" fill="#34D056" x="6.99" y="35.99" width="7.62" height="7.26" rx="1.32"/><rect stroke-width="1.98" fill="#34D056" x="20.19" y="24.39" width="7.62" height="7.26" rx="1.32"/><rect stroke-width="1.98" fill="#34D056" x="20.19" y="35.99" width="7.62" height="7.26" rx="1.32"/><rect stroke-width="1.98" fill="#34D056" x="20.19" y="12.39" width="7.62" height="7.26" rx="1.32"/><path stroke-width="1.5" stroke-linecap="round" d="M8.722 49H26"/></g></svg>